<?xml version="1.0" encoding="UTF-8" standalone="no"?>
<svg
   xmlns:dc="http://purl.org/dc/elements/1.1/"
   xmlns:cc="http://creativecommons.org/ns#"
   xmlns:rdf="http://www.w3.org/1999/02/22-rdf-syntax-ns#"
   xmlns:svg="http://www.w3.org/2000/svg"
   xmlns="http://www.w3.org/2000/svg"
   xmlns:sodipodi="http://sodipodi.sourceforge.net/DTD/sodipodi-0.dtd"
   xmlns:inkscape="http://www.inkscape.org/namespaces/inkscape"
   width="136.29617mm"
   height="25.4mm"
   viewBox="0 0 136.29617 25.4"
   version="1.1"
   id="svg858"
   inkscape:version="1.0.2 (e86c870879, 2021-01-15, custom)"
   sodipodi:docname="babydrone.svg">
  <defs
     id="defs852" />
  <sodipodi:namedview
     id="base"
     pagecolor="#ffffff"
     bordercolor="#666666"
     borderopacity="1.0"
     inkscape:pageopacity="0.0"
     inkscape:pageshadow="2"
     inkscape:zoom="0.49497475"
     inkscape:cx="327.33805"
     inkscape:cy="362.79004"
     inkscape:document-units="mm"
     inkscape:current-layer="layer1"
     inkscape:document-rotation="0"
     showgrid="false"
     inkscape:window-width="1272"
     inkscape:window-height="1040"
     inkscape:window-x="156"
     inkscape:window-y="0"
     inkscape:window-maximized="0" />
  <metadata
     id="metadata855">
    <rdf:RDF>
      <cc:Work
         rdf:about="">
        <dc:format>image/svg+xml</dc:format>
        <dc:type
           rdf:resource="http://purl.org/dc/dcmitype/StillImage" />
        <dc:title />
      </cc:Work>
    </rdf:RDF>
  </metadata>
  <g
     inkscape:label="Layer 1"
     inkscape:groupmode="layer"
     id="layer1"
     transform="translate(-23.133023,-22.924585)">
    <g
       aria-label="BabyDrone"
       id="text1423"
       style="font-weight:bold;font-size:25.4px;line-height:1.25;font-family:'Noto Sans';-inkscape-font-specification:'Noto Sans Bold';stroke-width:0.264583;fill:#999999">
      <path
         d="m 23.133023,24.092985 h 5.6388 q 3.6068,0 5.461,1.016 1.8796,1.016 1.8796,3.581399 0,1.5494 -0.7366,2.6162 -0.7112,1.0668 -2.0574,1.2954 v 0.127 q 0.889,0.2032 1.6256,0.6604 0.762,0.4318 1.1938,1.2954 0.4318,0.8636 0.4318,2.286 0,2.4638 -1.8034,3.8608 -1.778,1.397 -4.8514,1.397 h -6.7818 z m 3.8354,7.188199 h 2.2352 q 1.6764,0 2.3114,-0.508 0.6604,-0.5334 0.6604,-1.5748 0,-1.041399 -0.762,-1.498599 -0.762,-0.4572 -2.413,-0.4572 h -2.032 z m 0,3.048 v 4.7244 h 2.5146 q 1.7272,0 2.413,-0.6604 0.6858,-0.6858 0.6858,-1.8034 0,-1.016 -0.7112,-1.6256 -0.6858,-0.635 -2.5146,-0.635 z"
         style="stroke-width:0.264583;fill:#999999"
         id="path1425" />
      <path
         d="m 45.586596,28.080785 q 2.794,0 4.2672,1.219199 1.4986,1.1938 1.4986,3.683 v 9.2456 h -2.6416 l -0.7366,-1.8796 h -0.1016 q -0.889,1.1176 -1.8796,1.6256 -0.9906,0.508 -2.7178,0.508 -1.8542,0 -3.0734,-1.0668 -1.2192,-1.0668 -1.2192,-3.3274 0,-2.2098 1.5494,-3.2512 1.5494,-1.0414 4.6482,-1.1684 l 2.413,-0.0762 v -0.6096 q 0,-1.0922 -0.5842,-1.6002 -0.5588,-0.508 -1.5748,-0.508 -1.016,0 -1.9812,0.3048 -0.9652,0.2794 -1.9304,0.7112 l -1.2446,-2.5654 q 1.0922,-0.5588 2.4638,-0.889 1.3716,-0.355599 2.8448,-0.355599 z m 2.0066,7.721599 -1.4732,0.0508 q -1.8288,0.0508 -2.54,0.6604 -0.7112,0.6096 -0.7112,1.6002 0,0.8636 0.508,1.2446 0.508,0.3556 1.3208,0.3556 1.2192,0 2.0574,-0.7112 0.8382,-0.7366 0.8382,-2.0574 z"
         style="stroke-width:0.264583;fill:#999999"
         id="path1427" />
      <path
         d="m 59.023151,22.924585 v 4.4958 q 0,0.7874 -0.0508,1.549399 -0.0508,0.762 -0.1016,1.1938 h 0.1524 q 0.5588,-0.8636 1.4986,-1.4478 0.9398,-0.609599 2.4384,-0.609599 2.3368,0 3.7846,1.828799 1.4478,1.8034 1.4478,5.334 0,3.556 -1.4732,5.3848 -1.4732,1.8288 -3.8608,1.8288 -1.524,0 -2.413,-0.5334 -0.8636,-0.5588 -1.4224,-1.2446 h -0.254 l -0.635,1.524 h -2.8956 V 22.924585 Z m 2.7178,8.204199 q -1.4732,0 -2.0828,0.9398 -0.6096,0.9144 -0.635,2.7686 v 0.4064 q 0,2.0066 0.5842,3.0988 0.6096,1.0668 2.1844,1.0668 1.1684,0 1.8542,-1.0668 0.6858,-1.0922 0.6858,-3.1242 0,-2.032 -0.7112,-3.048 -0.6858,-1.0414 -1.8796,-1.0414 z"
         style="stroke-width:0.264583;fill:#999999"
         id="path1429" />
      <path
         d="m 68.827522,28.360184 h 4.1402 l 2.6162,7.7978 q 0.2032,0.5842 0.3048,1.1684 0.1016,0.5842 0.1524,1.2446 h 0.0762 q 0.0762,-0.6604 0.2032,-1.2446 0.127,-0.5842 0.3302,-1.1684 l 2.5654,-7.7978 h 4.064 l -5.8674,15.6464 q -0.8128,2.159 -2.3114,3.2258 -1.4986,1.0922 -3.4798,1.0922 -0.6604,0 -1.1176,-0.0762 -0.4572,-0.0508 -0.8128,-0.127 v -2.9972 q 0.254,0.0508 0.6604,0.1016 0.4064,0.0508 0.8382,0.0508 1.1938,0 1.8796,-0.7366 0.6858,-0.7112 1.0414,-1.7272 l 0.2286,-0.6858 z"
         style="stroke-width:0.264583;fill:#999999"
         id="path1431" />
      <path
         d="m 100.60288,32.982984 q 0,4.5974 -2.616198,6.9342 -2.616199,2.3114 -7.289799,2.3114 h -5.1308 V 24.092985 h 5.6896 q 2.8448,0 4.9276,1.016 2.108199,1.016 3.251199,2.9972 1.168398,1.981199 1.168398,4.876799 z m -3.987797,0.1016 q 0,-2.9972 -1.3208,-4.4196 -1.3208,-1.422399 -3.8354,-1.422399 h -2.0574 v 11.810999 h 1.651 q 5.5626,0 5.5626,-5.969 z"
         style="stroke-width:0.264583;fill:#999999"
         id="path1433" />
      <path
         d="m 111.80427,28.106185 q 0.2794,0 0.6604,0.0254 0.381,0.0254 0.6096,0.0762 l -0.2794,3.555999 q -0.2032,-0.0508 -0.5334,-0.0762 -0.3302,-0.0508 -0.5842,-0.0508 -0.9652,0 -1.8542,0.3556 -0.889,0.3302 -1.4478,1.0922 -0.5334,0.762 -0.5334,2.0828 v 7.0612 h -3.7846 v -13.8684 h 2.8702 l 0.5588,2.3368 h 0.1778 q 0.6096,-1.0668 1.6764,-1.8288 1.0668,-0.761999 2.4638,-0.761999 z"
         style="stroke-width:0.264583;fill:#999999"
         id="path1435" />
      <path
         d="m 127.67922,35.268984 q 0,3.4544 -1.8288,5.334 -1.8034,1.8796 -4.9276,1.8796 -1.9304,0 -3.4544,-0.8382 -1.4986,-0.8382 -2.3622,-2.4384 -0.8636,-1.6256 -0.8636,-3.937 0,-3.4544 1.8034,-5.3086 1.8034,-1.854199 4.953,-1.854199 1.9558,0 3.4544,0.838199 1.4986,0.8382 2.3622,2.4384 0.8636,1.6002 0.8636,3.8862 z m -9.5758,0 q 0,2.0574 0.6604,3.1242 0.6858,1.0414 2.2098,1.0414 1.4986,0 2.159,-1.0414 0.6858,-1.0668 0.6858,-3.1242 0,-2.0574 -0.6858,-3.0734 -0.6604,-1.0414 -2.1844,-1.0414 -1.4986,0 -2.1844,1.0414 -0.6604,1.016 -0.6604,3.0734 z"
         style="stroke-width:0.264583;fill:#999999"
         id="path1437" />
      <path
         d="m 138.67741,28.106185 q 2.2352,0 3.5814,1.219199 1.3462,1.1938 1.3462,3.8608 v 9.0424 h -3.7846 v -8.1026 q 0,-1.4986 -0.5334,-2.2352 -0.5334,-0.762 -1.7018,-0.762 -1.7272,0 -2.3622,1.1938 -0.635,1.1684 -0.635,3.3782 v 6.5278 h -3.7846 v -13.8684 h 2.8956 l 0.508,1.778 h 0.2032 q 0.6604,-1.0668 1.8034,-1.5494 1.1684,-0.482599 2.4638,-0.482599 z"
         style="stroke-width:0.264583;fill:#999999"
         id="path1439" />
      <path
         d="m 153.2062,28.106185 q 2.8702,0 4.5466,1.650999 1.6764,1.6256 1.6764,4.6482 v 1.8288 h -8.9408 q 0.0508,1.6002 0.9398,2.5146 0.9144,0.9144 2.5146,0.9144 1.3208,0 2.413,-0.254 1.1176,-0.2794 2.286,-0.8382 v 2.921 q -1.0414,0.508 -2.159,0.7366 -1.1176,0.254 -2.7178,0.254 -2.0828,0 -3.683,-0.762 -1.6002,-0.7874 -2.5146,-2.3368 -0.9144,-1.5748 -0.9144,-3.9878 0,-2.413 0.8128,-4.0386 0.8382,-1.6256 2.3114,-2.4384 1.4732,-0.812799 3.429,-0.812799 z m 0.0254,2.692399 q -1.1176,0 -1.8288,0.7112 -0.7112,0.7112 -0.8382,2.2098 h 5.3086 q -0.0254,-1.2446 -0.6858,-2.0828 -0.635,-0.8382 -1.9558,-0.8382 z"
         style="stroke-width:0.264583;fill:#999999"
         id="path1441" />
    </g>
  </g>
</svg>
