<?xml version="1.0" encoding="UTF-8" standalone="no"?>
<svg
   xmlns:dc="http://purl.org/dc/elements/1.1/"
   xmlns:cc="http://creativecommons.org/ns#"
   xmlns:rdf="http://www.w3.org/1999/02/22-rdf-syntax-ns#"
   xmlns:svg="http://www.w3.org/2000/svg"
   xmlns="http://www.w3.org/2000/svg"
   xmlns:sodipodi="http://sodipodi.sourceforge.net/DTD/sodipodi-0.dtd"
   xmlns:inkscape="http://www.inkscape.org/namespaces/inkscape"
   version="1.0"
   width="899.7196pt"
   height="186.42387pt"
   viewBox="0 0 1799.4392 378.06762"
   preserveAspectRatio="xMidYMid meet"
   id="svg91"
   sodipodi:docname="Bunny_350_Logo.svg"
   inkscape:version="1.0.2 (e86c870879, 2021-01-15, custom)">
  <defs
     id="defs95" />
  <sodipodi:namedview
     pagecolor="#ffffff"
     bordercolor="#666666"
     borderopacity="1"
     objecttolerance="10"
     gridtolerance="10"
     guidetolerance="10"
     inkscape:pageopacity="0"
     inkscape:pageshadow="2"
     inkscape:window-width="1920"
     inkscape:window-height="1017"
     id="namedview93"
     showgrid="false"
     inkscape:snap-object-midpoints="false"
     inkscape:snap-center="false"
     inkscape:snap-grids="true"
     inkscape:snap-bbox="false"
     inkscape:zoom="0.70740319"
     inkscape:cx="1416.7069"
     inkscape:cy="231.09122"
     inkscape:window-x="-8"
     inkscape:window-y="-8"
     inkscape:window-maximized="1"
     inkscape:current-layer="svg91"
     inkscape:document-rotation="0" />
  <metadata
     id="metadata71">
Created by potrace 1.16, written by Peter Selinger 2001-2019
<rdf:RDF>
  <cc:Work
     rdf:about="">
    <dc:format>image/svg+xml</dc:format>
    <dc:type
       rdf:resource="http://purl.org/dc/dcmitype/StillImage" />
  </cc:Work>
</rdf:RDF>
</metadata>
  <g
     id="g957"
     transform="translate(-22.656092,-40.8915)">
    <g
       id="g969">
      <path
         style="fill:#b3b3b3;stroke:#b3b3b3;stroke-width:0.75px;stroke-linecap:butt;stroke-linejoin:miter;stroke-opacity:1"
         d="M 97.717319,41.586574 9.7455065,291.74643 H 829.15439 l -91.0595,126.83769 H 1755.6645 l 77.6567,-224.88628 h -763.2801 l 65.579,-152.431164 z"
         id="path111"
         sodipodi:nodetypes="ccccccccc" />
      <g
         transform="matrix(0.09687712,0,0,-0.09924521,0.16807961,504.64792)"
         fill="#000000"
         stroke="none"
         id="g89">
        <path
           d="m 2490,3625 v -595 h 80 80 v 36 35 l 33,-25 c 59,-45 117,-66 187,-65 193,0 323,146 323,364 0,115 -25,184 -94,259 -62,69 -130,99 -219,100 -79,0 -127,-15 -185,-60 l -45,-34 v 290 290 h -80 -80 z m 428,-49 c 38,-20 78,-65 96,-108 22,-51 20,-153 -3,-203 -51,-113 -199,-150 -287,-73 -59,52 -76,98 -72,193 2,69 7,88 30,123 16,23 45,50 65,61 45,24 132,27 171,7 z"
           id="path73" />
        <path
           d="m 6713,4126 c -101,-33 -159,-94 -193,-204 -11,-35 -20,-68 -20,-73 0,-5 37,-9 83,-9 h 83 l 13,44 c 28,97 133,135 231,83 52,-27 80,-75 80,-137 0,-91 -60,-150 -152,-150 h -48 v -70 c 0,-77 -5,-72 83,-84 82,-11 131,-74 132,-171 0,-80 -36,-144 -98,-174 -104,-50 -234,0 -263,100 l -10,34 -82,3 -83,3 7,-28 c 18,-82 27,-105 57,-150 115,-168 404,-179 554,-22 56,59 78,122 78,224 0,79 -4,97 -28,148 -16,31 -44,69 -63,83 l -34,27 38,41 c 57,62 76,119 70,213 -7,122 -65,206 -173,254 -62,28 -199,36 -262,15 z"
           id="path75" />
        <path
           d="m 8570,4131 c -91,-30 -187,-116 -235,-210 -49,-98 -68,-191 -67,-346 0,-215 39,-335 146,-452 27,-30 72,-66 100,-81 44,-23 63,-27 136,-27 73,0 92,4 136,27 28,15 73,51 100,81 107,117 146,237 146,452 0,215 -41,342 -145,453 -70,74 -133,104 -222,108 -38,2 -81,0 -95,-5 z m 173,-174 c 42,-32 92,-125 112,-208 19,-83 19,-265 0,-347 -25,-107 -70,-181 -133,-219 -102,-62 -216,15 -268,182 -24,76 -30,293 -10,378 26,113 79,201 138,231 46,23 118,16 161,-17 z"
           id="path77" />
        <path
           d="m 7617,4113 c -6,-10 -167,-547 -167,-556 0,-4 13,-7 28,-7 18,0 38,11 57,30 65,68 202,81 284,27 67,-44 95,-97 100,-184 4,-96 -15,-149 -75,-201 -53,-47 -116,-67 -185,-59 -67,8 -105,32 -159,99 l -44,56 -62,-52 -61,-51 32,-45 c 79,-109 206,-167 344,-157 107,7 179,37 251,104 100,92 142,216 120,356 -28,179 -154,299 -330,314 -56,5 -70,9 -66,20 3,8 16,48 27,89 l 22,74 h 169 168 v 75 75 h -224 c -124,0 -227,-3 -229,-7 z"
           id="path79" />
        <path
           d="m 4422,3722 c -29,-11 -64,-30 -77,-42 l -25,-23 v 31 32 h -85 -85 v -345 -345 h 85 85 v 216 c 0,239 7,281 53,320 40,34 133,35 172,2 38,-33 44,-79 45,-320 v -218 h 80 80 v 240 c 0,263 -7,320 -50,378 -55,76 -178,109 -278,74 z"
           id="path81" />
        <path
           d="m 5242,3731 c -18,-5 -55,-23 -83,-39 l -49,-31 v 29 30 h -80 -80 v -345 -345 h 79 79 l 4,228 c 3,209 5,230 25,268 25,47 57,64 119,64 59,0 99,-22 113,-61 7,-20 11,-120 11,-265 v -234 h 86 86 l -5,258 c -3,155 -9,272 -16,295 -15,48 -63,103 -112,127 -44,23 -130,33 -177,21 z"
           id="path83" />
        <path
           d="m 3362,3468 c 5,-286 9,-302 81,-376 75,-76 204,-103 327,-66 72,21 151,99 168,166 8,30 12,136 12,287 v 241 h -80 -80 v -239 c 0,-231 -1,-239 -23,-272 -31,-46 -62,-61 -120,-56 -66,6 -103,42 -117,116 -5,29 -10,143 -10,252 v 199 h -81 -81 z"
           id="path85" />
        <path
           d="m 5641,3698 c 7,-13 77,-140 156,-282 l 143,-259 -101,-191 c -56,-105 -117,-219 -136,-253 l -35,-63 h 94 l 93,1 270,525 c 149,289 272,530 273,535 2,5 -35,9 -85,9 h -88 l -100,-199 -99,-200 -105,200 -106,199 h -93 -93 z"
           id="path87" />
      </g>
    </g>
  </g>
</svg>
