<?xml version="1.0" encoding="UTF-8" standalone="no"?>
<svg
   xmlns:dc="http://purl.org/dc/elements/1.1/"
   xmlns:cc="http://creativecommons.org/ns#"
   xmlns:rdf="http://www.w3.org/1999/02/22-rdf-syntax-ns#"
   xmlns:svg="http://www.w3.org/2000/svg"
   xmlns="http://www.w3.org/2000/svg"
   xmlns:sodipodi="http://sodipodi.sourceforge.net/DTD/sodipodi-0.dtd"
   xmlns:inkscape="http://www.inkscape.org/namespaces/inkscape"
   width="102mm"
   height="57mm"
   viewBox="0 0 102 57"
   version="1.1"
   id="svg1450"
   inkscape:version="1.0.2 (e86c870879, 2021-01-15, custom)"
   sodipodi:docname="slashfuni.svg">
  <defs
     id="defs1444" />
  <sodipodi:namedview
     id="base"
     pagecolor="#ffffff"
     bordercolor="#666666"
     borderopacity="1.0"
     inkscape:pageopacity="0.0"
     inkscape:pageshadow="2"
     inkscape:zoom="0.98994949"
     inkscape:cx="208.35961"
     inkscape:cy="226.05004"
     inkscape:document-units="mm"
     inkscape:current-layer="layer1"
     inkscape:document-rotation="0"
     showgrid="false"
     inkscape:window-width="1272"
     inkscape:window-height="1040"
     inkscape:window-x="182"
     inkscape:window-y="0"
     inkscape:window-maximized="0" />
  <metadata
     id="metadata1447">
    <rdf:RDF>
      <cc:Work
         rdf:about="">
        <dc:format>image/svg+xml</dc:format>
        <dc:type
           rdf:resource="http://purl.org/dc/dcmitype/StillImage" />
        <dc:title />
      </cc:Work>
    </rdf:RDF>
  </metadata>
  <g
     inkscape:label="Layer 1"
     inkscape:groupmode="layer"
     id="layer1"
     transform="translate(-16.386906,-18.654762)">
    <rect
       style="fill:#000000;stroke:#808080;stroke-width:3;stroke-linejoin:miter;stroke-miterlimit:4;stroke-dasharray:none"
       id="rect2013"
       width="100"
       height="55"
       x="17.386906"
       y="19.654762"
       ry="1.1097657e-17" />
    <g
       aria-label="/funi"
       id="text2017"
       style="font-weight:bold;font-size:37.0417px;line-height:1.25;font-family:'Noto Sans';-inkscape-font-specification:'Noto Sans Bold';fill:#ffffff;stroke:#ffffff;stroke-width:0.264583">
      <path
         d="M 38.740626,33.543888 28.887534,59.991661 H 23.886905 L 33.739997,33.543888 Z"
         style="font-size:37.0417px;fill:#666666;stroke:#666666;stroke-width:0.264583"
         id="path2019" />
      <path
         d="M 53.001613,43.915564 H 48.223234 V 59.991661 H 42.704021 V 43.915564 h -3.037419 v -2.667002 l 3.037419,-1.481668 v -1.481668 q 0,-2.592919 0.851959,-4.000504 0.889001,-1.444626 2.481794,-2.037293 1.629835,-0.592667 3.815295,-0.592667 1.592793,0 2.926294,0.259292 1.333501,0.259292 2.148419,0.592667 l -1.407585,4.037545 q -0.629709,-0.185209 -1.407584,-0.333375 -0.740834,-0.185209 -1.666877,-0.185209 -1.148293,0 -1.703918,0.703792 -0.518584,0.703793 -0.518584,1.778002 v 1.259418 h 4.778379 z"
         style="font-size:37.0417px;fill:#ffffff;stroke:#ffffff;stroke-width:0.264583"
         id="path2021" />
      <path
         d="m 74.708015,39.766894 v 20.224767 h -4.222753 l -0.740834,-2.592919 h -0.296334 q -0.963084,1.555752 -2.667002,2.259544 -1.666877,0.703792 -3.556003,0.703792 -3.25967,0 -5.22288,-1.74096 -1.96321,-1.778001 -1.96321,-5.66738 V 39.766894 h 5.519213 v 11.816302 q 0,2.18546 0.777876,3.296711 0.777876,1.074209 2.481794,1.074209 2.518835,0 3.444878,-1.703918 0.926042,-1.74096 0.926042,-4.963588 v -9.519716 z"
         style="font-size:37.0417px;fill:#ffffff;stroke:#ffffff;stroke-width:0.264583"
         id="path2023" />
      <path
         d="m 91.969431,39.396477 q 3.259669,0 5.222879,1.778001 1.96321,1.74096 1.96321,5.630338 V 59.991661 H 93.636307 V 48.175359 q 0,-2.18546 -0.777875,-3.259669 -0.777876,-1.111251 -2.481794,-1.111251 -2.518836,0 -3.444878,1.74096 -0.926043,1.703918 -0.926043,4.926546 v 9.519716 H 80.486504 V 39.766894 h 4.222754 l 0.740834,2.592919 h 0.296334 q 0.963084,-1.555752 2.62996,-2.259544 1.703918,-0.703792 3.593045,-0.703792 z"
         style="font-size:37.0417px;fill:#ffffff;stroke:#ffffff;stroke-width:0.264583"
         id="path2025" />
      <path
         d="m 107.60102,31.83997 q 1.22237,0 2.11137,0.592667 0.889,0.555626 0.889,2.111377 0,1.51871 -0.889,2.111377 -0.889,0.592667 -2.11137,0.592667 -1.25942,0 -2.14842,-0.592667 -0.85196,-0.592667 -0.85196,-2.111377 0,-1.555751 0.85196,-2.111377 0.889,-0.592667 2.14842,-0.592667 z m 2.74108,7.926924 v 20.224767 h -5.51921 V 39.766894 Z"
         style="font-size:37.0417px;fill:#ffffff;stroke:#ffffff;stroke-width:0.264583"
         id="path2027" />
    </g>
  </g>
</svg>
