<?xml version="1.0" encoding="UTF-8" standalone="no"?>
<svg
   xmlns:dc="http://purl.org/dc/elements/1.1/"
   xmlns:cc="http://creativecommons.org/ns#"
   xmlns:rdf="http://www.w3.org/1999/02/22-rdf-syntax-ns#"
   xmlns:svg="http://www.w3.org/2000/svg"
   xmlns="http://www.w3.org/2000/svg"
   xmlns:sodipodi="http://sodipodi.sourceforge.net/DTD/sodipodi-0.dtd"
   xmlns:inkscape="http://www.inkscape.org/namespaces/inkscape"
   width="87.960022mm"
   height="19.558001mm"
   viewBox="0 0 87.960022 19.558001"
   version="1.1"
   id="svg8"
   inkscape:version="1.0.2 (e86c870879, 2021-01-15, custom)"
   sodipodi:docname="srabbit.svg">
  <defs
     id="defs2" />
  <sodipodi:namedview
     id="base"
     pagecolor="#ffffff"
     bordercolor="#666666"
     borderopacity="1.0"
     inkscape:pageopacity="0.0"
     inkscape:pageshadow="2"
     inkscape:zoom="0.98994949"
     inkscape:cx="142.31296"
     inkscape:cy="150.50135"
     inkscape:document-units="mm"
     inkscape:current-layer="layer1"
     inkscape:document-rotation="0"
     showgrid="false"
     inkscape:window-width="1272"
     inkscape:window-height="1040"
     inkscape:window-x="130"
     inkscape:window-y="0"
     inkscape:window-maximized="0" />
  <metadata
     id="metadata5">
    <rdf:RDF>
      <cc:Work
         rdf:about="">
        <dc:format>image/svg+xml</dc:format>
        <dc:type
           rdf:resource="http://purl.org/dc/dcmitype/StillImage" />
        <dc:title />
      </cc:Work>
    </rdf:RDF>
  </metadata>
  <g
     inkscape:label="Layer 1"
     inkscape:groupmode="layer"
     id="layer1"
     transform="translate(-16.262047,-12.446)">
    <g
       aria-label="srabbit"
       id="text835"
       style="font-weight:bold;font-size:25.4px;line-height:1.25;font-family:'Noto Sans';-inkscape-font-specification:'Noto Sans Bold';stroke-width:0.264583;fill:#999999">
      <path
         d="m 26.777647,27.6352 q 0,2.1082 -1.4986,3.2512 -1.4732,1.1176 -4.4196,1.1176 -1.4478,0 -2.4892,-0.2032 -1.0414,-0.1778 -2.0828,-0.6096 V 28.067 q 1.1176,0.508 2.413,0.8382 1.2954,0.3302 2.286,0.3302 1.0922,0 1.5748,-0.3302 0.4826,-0.3302 0.4826,-0.8636 0,-0.3556 -0.2032,-0.635 -0.1778,-0.2794 -0.8128,-0.635 -0.635,-0.3556 -1.9812,-0.9144 -1.3208,-0.5588 -2.159,-1.0922 -0.8128,-0.5588 -1.2192,-1.3208 -0.4064,-0.7874 -0.4064,-1.9558 0,-1.9304 1.4986,-2.8956 1.4986,-0.9652 3.9878,-0.9652 1.2954,0 2.4638,0.254 1.1684,0.254 2.413,0.8382 l -1.143,2.7178 q -1.016,-0.4318 -1.9304,-0.7112 -0.9144,-0.3048 -1.8542,-0.3048 -1.6764,0 -1.6764,0.9144 0,0.3302 0.2032,0.6096 0.2286,0.254 0.8382,0.5588 0.635,0.3048 1.8542,0.8128 1.1938,0.4826 2.0574,1.016 0.8636,0.508 1.3208,1.2954 0.4826,0.7874 0.4826,2.0066 z"
         style="stroke-width:0.264583;fill:#999999"
         id="path837" />
      <path
         d="m 37.471041,17.6276 q 0.2794,0 0.6604,0.0254 0.381,0.0254 0.6096,0.0762 l -0.2794,3.556 q -0.2032,-0.0508 -0.5334,-0.0762 -0.3302,-0.0508 -0.5842,-0.0508 -0.9652,0 -1.8542,0.3556 -0.889,0.3302 -1.4478,1.0922 -0.5334,0.762 -0.5334,2.0828 V 31.75 h -3.7846 V 17.8816 h 2.8702 l 0.5588,2.3368 h 0.1778 q 0.6096,-1.0668 1.6764,-1.8288 1.0668,-0.762 2.4638,-0.762 z"
         style="stroke-width:0.264583;fill:#999999"
         id="path839" />
      <path
         d="m 46.437194,17.6022 q 2.794,0 4.267199,1.2192 1.4986,1.1938 1.4986,3.683 V 31.75 h -2.6416 l -0.736599,-1.8796 h -0.1016 q -0.889,1.1176 -1.8796,1.6256 -0.9906,0.508 -2.7178,0.508 -1.8542,0 -3.0734,-1.0668 -1.2192,-1.0668 -1.2192,-3.3274 0,-2.2098 1.5494,-3.2512 1.5494,-1.0414 4.6482,-1.1684 l 2.413,-0.0762 v -0.6096 q 0,-1.0922 -0.5842,-1.6002 -0.5588,-0.508 -1.5748,-0.508 -1.016,0 -1.9812,0.3048 -0.9652,0.2794 -1.9304,0.7112 l -1.2446,-2.5654 q 1.0922,-0.5588 2.4638,-0.889 1.3716,-0.3556 2.8448,-0.3556 z m 2.0066,7.7216 -1.4732,0.0508 q -1.8288,0.0508 -2.54,0.6604 -0.7112,0.6096 -0.7112,1.6002 0,0.8636 0.508,1.2446 0.508,0.3556 1.3208,0.3556 1.2192,0 2.0574,-0.7112 0.8382,-0.7366 0.8382,-2.0574 z"
         style="stroke-width:0.264583;fill:#999999"
         id="path841" />
      <path
         d="m 59.873746,12.446 v 4.4958 q 0,0.7874 -0.0508,1.5494 -0.0508,0.762 -0.1016,1.1938 h 0.1524 q 0.5588,-0.8636 1.4986,-1.4478 0.9398,-0.6096 2.4384,-0.6096 2.3368,0 3.7846,1.8288 1.4478,1.8034 1.4478,5.334 0,3.556 -1.4732,5.3848 -1.4732,1.8288 -3.8608,1.8288 -1.524,0 -2.413,-0.5334 -0.8636,-0.5588 -1.4224,-1.2446 h -0.254 l -0.635,1.524 h -2.8956 V 12.446 Z m 2.7178,8.2042 q -1.4732,0 -2.0828,0.9398 -0.6096,0.9144 -0.635,2.7686 v 0.4064 q 0,2.0066 0.5842,3.0988 0.6096,1.0668 2.1844,1.0668 1.1684,0 1.8542,-1.0668 0.6858,-1.0922 0.6858,-3.1242 0,-2.032 -0.7112,-3.048 -0.6858,-1.0414 -1.8796,-1.0414 z"
         style="stroke-width:0.264583;fill:#999999"
         id="path843" />
      <path
         d="m 75.951932,12.446 v 4.4958 q 0,0.7874 -0.0508,1.5494 -0.0508,0.762 -0.1016,1.1938 h 0.1524 q 0.5588,-0.8636 1.4986,-1.4478 0.9398,-0.6096 2.4384,-0.6096 2.3368,0 3.7846,1.8288 1.4478,1.8034 1.4478,5.334 0,3.556 -1.4732,5.3848 -1.4732,1.8288 -3.8608,1.8288 -1.524,0 -2.413,-0.5334 -0.8636,-0.5588 -1.4224,-1.2446 h -0.254 l -0.635,1.524 h -2.8956 V 12.446 Z m 2.7178,8.2042 q -1.4732,0 -2.0828,0.9398 -0.6096,0.9144 -0.635,2.7686 v 0.4064 q 0,2.0066 0.5842,3.0988 0.6096,1.0668 2.1844,1.0668 1.1684,0 1.8542,-1.0668 0.6858,-1.0922 0.6858,-3.1242 0,-2.032 -0.7112,-3.048 -0.6858,-1.0414 -1.8796,-1.0414 z"
         style="stroke-width:0.264583;fill:#999999"
         id="path845" />
      <path
         d="m 90.150511,12.446 q 0.8382,0 1.4478,0.4064 0.6096,0.381 0.6096,1.4478 0,1.0414 -0.6096,1.4478 -0.6096,0.4064 -1.4478,0.4064 -0.8636,0 -1.4732,-0.4064 -0.5842,-0.4064 -0.5842,-1.4478 0,-1.0668 0.5842,-1.4478 0.6096,-0.4064 1.4732,-0.4064 z m 1.8796,5.4356 V 31.75 h -3.7846 V 17.8816 Z"
         style="stroke-width:0.264583;fill:#999999"
         id="path847" />
      <path
         d="m 101.83447,28.9814 q 0.635,0 1.2192,-0.1016 0.5842,-0.127 1.1684,-0.3302 v 2.8194 q -0.6096,0.2794 -1.524,0.4572 -0.889,0.1778 -1.9558,0.1778 -1.244596,0 -2.235196,-0.4064 -0.9652,-0.4064 -1.5494,-1.397 -0.5588,-0.9906 -0.5588,-2.794 v -6.6802 h -1.8034 v -1.6002 l 2.0828,-1.27 1.0922,-2.921 h 2.412996 v 2.9464 h 3.8862 v 2.8448 h -3.8862 v 6.6802 q 0,0.7874 0.4572,1.1938 0.4572,0.381 1.1938,0.381 z"
         style="stroke-width:0.264583;fill:#999999"
         id="path849" />
    </g>
  </g>
</svg>
